<svg width="850" height="692" viewBox="0 0 850 692" fill="none" xmlns="http://www.w3.org/2000/svg">
<path fill-rule="evenodd" clip-rule="evenodd" d="M257.5 269C278.211 269 295 252.211 295 231.5C295 210.789 278.211 194 257.5 194C236.789 194 220 210.789 220 231.5C220 252.211 236.789 269 257.5 269ZM593.5 269C614.211 269 631 252.211 631 231.5C631 210.789 614.211 194 593.5 194C572.789 194 556 210.789 556 231.5C556 252.211 572.789 269 593.5 269ZM356.441 336.405C346.256 327.083 345.557 311.269 354.88 301.085L387.101 265.882C405.746 245.513 437.373 244.115 457.743 262.759L492.945 294.981C503.13 304.303 503.829 320.117 494.507 330.302L462.285 365.504C459.451 368.6 456.317 371.258 452.968 373.474L482.203 393.131C499.986 400.68 519.305 404.818 539.5 404.818C591.832 404.818 638.278 377.031 667.361 334.109C673.996 324.317 690 326.67 690 338.498C690 449.945 596.231 542.651 472.524 561.992C462.705 577.616 445.315 588 425.5 588C405.828 588 388.546 577.765 378.69 562.33C253.889 543.755 159 450.609 159 338.498C159 327.156 174.324 324.8 180.691 334.185C209.778 377.064 256.199 404.818 308.5 404.818C331.442 404.818 353.252 399.478 372.964 389.864L397.592 373.305C395.525 371.918 393.536 370.359 391.643 368.627L356.441 336.405ZM381.036 545.26V452.244L410.992 432.103V531.268C410.992 539.395 417.581 545.983 425.708 545.983C433.835 545.983 440.423 539.395 440.423 531.268V432.847L470.379 452.989V545.26C470.379 546.187 470.351 547.107 470.295 548.02C464.828 567.62 446.843 582 425.5 582C404.848 582 387.34 568.537 381.275 549.908C381.117 548.38 381.036 546.83 381.036 545.26Z" fill="#393E46"/>
</svg>
