<svg width="731" height="594" viewBox="0 0 731 594" fill="none" xmlns="http://www.w3.org/2000/svg">
<rect width="731" height="594" rx="20" fill="#4ECCA3"/>
<path fill-rule="evenodd" clip-rule="evenodd" d="M198.5 175C219.211 175 236 158.211 236 137.5C236 116.789 219.211 100 198.5 100C177.789 100 161 116.789 161 137.5C161 158.211 177.789 175 198.5 175ZM534.5 175C555.211 175 572 158.211 572 137.5C572 116.789 555.211 100 534.5 100C513.789 100 497 116.789 497 137.5C497 158.211 513.789 175 534.5 175ZM297.441 242.405C287.256 233.083 286.557 217.269 295.88 207.084L328.101 171.882C346.746 151.513 378.373 150.115 398.743 168.759L433.945 200.981C444.13 210.303 444.829 226.117 435.507 236.302L403.285 271.504C400.451 274.6 397.317 277.258 393.968 279.474L423.203 299.131C440.986 306.68 460.305 310.818 480.5 310.818C532.832 310.818 579.278 283.031 608.361 240.109C614.996 230.317 631 232.67 631 244.498C631 355.945 537.231 448.651 413.524 467.992C403.705 483.616 386.315 494 366.5 494C346.828 494 329.546 483.765 319.69 468.33C194.889 449.755 100 356.609 100 244.498C100 233.156 115.324 230.8 121.691 240.185C150.778 283.064 197.199 310.818 249.5 310.818C272.442 310.818 294.252 305.478 313.964 295.864L338.592 279.305C336.525 277.918 334.536 276.359 332.643 274.627L297.441 242.405ZM322.036 451.26V358.244L351.992 338.103V437.268C351.992 445.395 358.581 451.983 366.708 451.983C374.835 451.983 381.423 445.395 381.423 437.268V338.847L411.379 358.989V451.26C411.379 452.187 411.351 453.107 411.295 454.02C405.828 473.62 387.843 488 366.5 488C345.848 488 328.34 474.537 322.275 455.908C322.117 454.38 322.036 452.83 322.036 451.26Z" fill="#393E46"/>
</svg>
